<svg width="120" height="120" viewBox="0 0 120 120" fill="none" xmlns="http://www.w3.org/2000/svg">
<path fill-rule="evenodd" clip-rule="evenodd" d="M60 0C26.88 0 0 26.88 0 60C0 93.12 26.88 120 60 120C93.12 120 120 93.12 120 60C120 26.88 93.12 0 60 0ZM60 18C69.96 18 78 26.04 78 36C78 45.96 69.96 54 60 54C50.04 54 42 45.96 42 36C42 26.04 50.04 18 60 18ZM60 103.2C45 103.2 31.74 95.5201 24 83.8801C24.18 71.9401 48 65.4001 60 65.4001C71.94 65.4001 95.82 71.9401 96 83.8801C88.26 95.5201 75 103.2 60 103.2Z" fill="#C3CAD9"/>
</svg>
