<svg width="112" height="32" viewBox="0 0 112 32" fill="none" xmlns="http://www.w3.org/2000/svg">
<g clip-path="url(#clip0_3059_62031)">
<path d="M21.7761 14.9069V23.538L13.7045 18.8163V17.817C13.7032 17.6268 13.7522 17.4397 13.8466 17.2753C13.9409 17.1108 14.077 16.975 14.2406 16.882L19.6948 13.6855C19.9061 13.5626 20.1455 13.4981 20.3891 13.4985C20.6328 13.499 20.872 13.5643 21.0828 13.6881C21.2936 13.8118 21.4687 13.9895 21.5904 14.2034C21.7121 14.4173 21.7761 14.6599 21.7761 14.9069Z" fill="#FFCC04"/>
<path d="M21.7761 23.5381V25.1276C21.7746 25.3161 21.7374 25.5026 21.6665 25.6769C21.5952 25.8414 21.4957 25.9918 21.3725 26.121C21.1118 26.3838 20.76 26.5327 20.3924 26.5359H15.0939C14.7254 26.5359 14.372 26.3875 14.1114 26.1234C13.8508 25.8593 13.7044 25.5011 13.7044 25.1276V18.8164L21.7761 23.5381Z" fill="#FBB117"/>
<path d="M23.4133 8.04091C25.604 8.04091 27.3799 6.24089 27.3799 4.02045C27.3799 1.80002 25.604 0 23.4133 0C21.2226 0 19.4466 1.80002 19.4466 4.02045C19.4466 6.24089 21.2226 8.04091 23.4133 8.04091Z" fill="#FFCC04"/>
<path d="M8.07166 15.0884V25.1278C8.07166 25.5013 7.92527 25.8596 7.66469 26.1237C7.40411 26.3878 7.05069 26.5362 6.68218 26.5362H1.38948C1.02097 26.5362 0.667546 26.3878 0.406969 26.1237C0.146391 25.8596 0 25.5013 0 25.1278L0 19.8101L8.07166 15.0884Z" fill="#223250"/>
<g style="mix-blend-mode:multiply">
<path d="M16.2932 10.2793L10.3086 13.7855L8.07162 15.0886V5.63939L9.611 4.73946C9.82223 4.61585 10.0618 4.55078 10.3057 4.55078C10.5496 4.55078 10.7893 4.61585 11.0005 4.73946L16.2932 7.83661C16.5052 7.95999 16.6813 8.13788 16.8038 8.35232C16.9263 8.56676 16.9908 8.81016 16.9908 9.05794C16.9908 9.30573 16.9263 9.54912 16.8038 9.76356C16.6813 9.978 16.5052 10.1559 16.2932 10.2793Z" fill="#009CE0"/>
</g>
<path d="M8.07185 5.63916V15.0884L0.000189645 19.8101V11.179C-0.0039137 10.9272 0.058638 10.679 0.181332 10.4601C0.304026 10.2412 0.482375 10.0596 0.697811 9.93427L2.23143 9.05771L8.07185 5.63916Z" fill="#005FC5"/>
<path d="M56.202 18.8282V24.5433C56.2051 24.8118 56.1554 25.0782 56.0558 25.3269C55.9562 25.5757 55.8087 25.8019 55.6219 25.9923C55.4351 26.1827 55.2128 26.3335 54.9679 26.4359C54.7231 26.5382 54.4605 26.5902 54.1956 26.5886H52.466V19.3833C52.4967 19.0821 52.4623 18.7777 52.3652 18.4913C52.2682 18.2049 52.1108 17.9434 51.9039 17.7248C51.6971 17.5063 51.4458 17.336 51.1675 17.2258C50.8892 17.1157 50.5906 17.0682 50.2924 17.0868C48.9202 17.0868 47.9862 17.8932 47.9862 19.6872V24.5433C47.9862 25.0795 47.776 25.5938 47.4019 25.973C47.0278 26.3522 46.5204 26.5652 45.9914 26.5652H44.2617V15.9706C44.2617 15.4344 44.4719 14.9201 44.846 14.5409C45.2201 14.1617 45.7275 13.9487 46.2566 13.9487H47.9862V15.1174C48.6608 14.1825 49.9061 13.5747 51.555 13.5747C54.0573 13.5922 56.202 15.4155 56.202 18.8282Z" fill="#223250"/>
<path d="M71.5675 13.9491V25.9578C71.5675 30.2062 68.2985 32.0002 64.9833 32.0002C62.3889 32.0002 60.2153 31.0185 59.068 28.944L60.8437 27.9038C61.1926 27.7069 61.5912 27.619 61.9893 27.6513C62.3873 27.6835 62.7671 27.8344 63.0807 28.0849C63.672 28.5033 64.3844 28.709 65.1044 28.6693C66.834 28.6693 67.9237 27.7577 67.9237 25.9637V24.7949C67.4857 25.3388 66.9277 25.7707 66.2948 26.0559C65.6619 26.3411 64.9717 26.4717 64.2799 26.437C63.4582 26.4319 62.6457 26.2605 61.8901 25.9331C61.1346 25.6056 60.4511 25.1285 59.8798 24.5298C59.3084 23.9311 58.8607 23.2229 58.5629 22.4466C58.2651 21.6703 58.1232 20.8416 58.1455 20.009C58.1232 19.1764 58.2651 18.3476 58.5629 17.5713C58.8607 16.795 59.3084 16.0868 59.8798 15.4881C60.4511 14.8895 61.1346 14.4124 61.8901 14.0849C62.6457 13.7574 63.4582 13.5861 64.2799 13.5809C64.9722 13.547 65.6627 13.6784 66.2956 13.9647C66.9286 14.2509 67.4863 14.684 67.9237 15.2288C67.9267 14.8904 68.0607 14.5666 68.2969 14.3273C68.533 14.0879 68.8524 13.9521 69.1864 13.9491H71.5675ZM67.9237 20.0148C67.9514 19.4037 67.7978 18.7983 67.4828 18.2765C67.1679 17.7547 66.7059 17.3405 66.1565 17.0872C65.6072 16.834 64.9955 16.7533 64.4005 16.8556C63.8055 16.9579 63.2543 17.2385 62.8181 17.6612C62.3819 18.0839 62.0805 18.6294 61.953 19.2273C61.8254 19.8252 61.8774 20.4481 62.1023 21.0157C62.3272 21.5834 62.7147 22.0697 63.2149 22.4121C63.715 22.7545 64.3049 22.9372 64.9084 22.9367C65.3002 22.9645 65.6934 22.909 66.0628 22.7738C66.4322 22.6386 66.7696 22.4267 67.0535 22.1516C67.3374 21.8765 67.5615 21.5443 67.7113 21.1764C67.8612 20.8084 67.9335 20.4128 67.9237 20.0148Z" fill="#223250"/>
<path d="M82.0427 26.5887L78.053 21.0022V26.5887H74.3112V8.89405H76.0409C76.3033 8.89328 76.5633 8.94501 76.806 9.04628C77.0487 9.14755 77.2693 9.29636 77.4552 9.48419C77.641 9.67201 77.7885 9.89517 77.8891 10.1409C77.9897 10.3866 78.0415 10.65 78.0415 10.916V19.4886L81.1894 14.8137C81.3709 14.5413 81.6157 14.3184 81.9023 14.1645C82.1888 14.0107 82.5083 13.9306 82.8326 13.9313H86.1477L81.6045 20.2542L86.2688 26.5712L82.0427 26.5887Z" fill="#223250"/>
<path d="M99.7027 13.9492V24.5438C99.7027 25.08 99.4925 25.5943 99.1184 25.9735C98.7443 26.3526 98.2369 26.5657 97.7079 26.5657H95.9782V25.3969C95.5087 25.9194 94.9304 26.3294 94.2853 26.5973C93.6401 26.8651 92.9441 26.9841 92.248 26.9455C88.9847 26.9455 86.2865 24.0237 86.2865 20.272C86.2865 16.5204 88.9789 13.5927 92.248 13.5927C92.9418 13.5552 93.6352 13.6741 94.2782 13.9409C94.9213 14.2076 95.4979 14.6156 95.9667 15.1354C95.9667 14.8255 96.0882 14.5282 96.3044 14.309C96.5207 14.0898 96.814 13.9667 97.1198 13.9667L99.7027 13.9492ZM95.9609 20.272C95.9609 19.4739 95.6481 18.7084 95.0913 18.144C94.5344 17.5796 93.7792 17.2625 92.9917 17.2625C92.2042 17.2625 91.449 17.5796 90.8922 18.144C90.3353 18.7084 90.0225 19.4739 90.0225 20.272C90.0225 21.0702 90.3353 21.8357 90.8922 22.4001C91.449 22.9645 92.2042 23.2815 92.9917 23.2815C93.7792 23.2815 94.5344 22.9645 95.0913 22.4001C95.6481 21.8357 95.9609 21.0702 95.9609 20.272Z" fill="#223250"/>
<path d="M112 22.7904C112 25.7123 109.504 26.9394 106.811 26.9394C104.32 26.9394 102.424 25.9811 101.449 23.93L103.179 22.9365C103.524 22.738 103.92 22.6487 104.315 22.6799C104.711 22.7112 105.088 22.8616 105.399 23.1118C105.811 23.4171 106.313 23.5716 106.823 23.5501C107.722 23.5501 108.172 23.2755 108.172 22.7671C108.172 21.3763 102.032 22.1126 102.032 17.7357C102.032 14.9774 104.338 13.5866 106.926 13.5866C107.901 13.556 108.866 13.7908 109.721 14.2667C110.576 14.7426 111.289 15.442 111.787 16.2923L109.942 17.3032C109.628 17.4792 109.273 17.5641 108.915 17.5486C108.557 17.5331 108.21 17.4179 107.912 17.2156C107.62 17.0213 107.276 16.9215 106.926 16.9292C106.275 16.9292 105.877 17.1805 105.877 17.6363C105.866 19.0797 112 18.1155 112 22.7904Z" fill="#223250"/>
<path d="M34.4494 15.7779V18.0043C32.9042 17.753 30.7076 18.3841 30.7076 20.8911V24.5434C30.7106 24.8109 30.6613 25.0763 30.5624 25.3243C30.4635 25.5723 30.317 25.798 30.1315 25.9882C29.946 26.1785 29.725 26.3295 29.4815 26.4326C29.2379 26.5356 28.9766 26.5887 28.7127 26.5887H26.9831V18.6588C26.9853 17.3893 27.4732 16.1702 28.3442 15.258C29.2152 14.3458 30.4014 13.8115 31.6531 13.7676H32.4141C32.6787 13.7614 32.9419 13.8088 33.1882 13.9069C33.4345 14.0051 33.659 14.1521 33.8485 14.3393C34.038 14.5265 34.1888 14.7502 34.292 14.9972C34.3952 15.2442 34.4487 15.5096 34.4494 15.7779Z" fill="#223250"/>
<path d="M39.2579 13.9487H40.9875V24.5433C40.9875 25.0796 40.7773 25.5939 40.4032 25.973C40.0291 26.3522 39.5217 26.5652 38.9927 26.5652H37.263V15.9706C37.263 15.4344 37.4732 14.9201 37.8473 14.5409C38.2214 14.1618 38.7288 13.9487 39.2579 13.9487Z" fill="#223250"/>
<path d="M39.1364 12.9728C40.3623 12.9728 41.3561 11.9655 41.3561 10.723C41.3561 9.48042 40.3623 8.47314 39.1364 8.47314C37.9105 8.47314 36.9167 9.48042 36.9167 10.723C36.9167 11.9655 37.9105 12.9728 39.1364 12.9728Z" fill="#223250"/>
</g>
<defs>
<clipPath id="clip0_3059_62031">
<rect width="112" height="32" fill="white"/>
</clipPath>
</defs>
</svg>
