<svg width="112" height="32" viewBox="0 0 112 32" fill="none" xmlns="http://www.w3.org/2000/svg">
<g clip-path="url(#clip0_3183_92522)">
<path d="M21.7763 14.9074V23.5385L13.7046 18.8168V17.8175C13.7033 17.6273 13.7524 17.4402 13.8467 17.2758C13.941 17.1113 14.0771 16.9755 14.2408 16.8825L19.6949 13.686C19.9062 13.5631 20.1457 13.4986 20.3893 13.499C20.6329 13.4995 20.8721 13.5648 21.083 13.6885C21.2938 13.8123 21.4688 13.99 21.5905 14.2039C21.7122 14.4178 21.7763 14.6604 21.7763 14.9074Z" fill="#FFCC04"/>
<path d="M21.7762 23.5381V25.1276C21.7748 25.3161 21.7376 25.5026 21.6667 25.6769C21.5954 25.8414 21.4958 25.9918 21.3727 26.121C21.112 26.3838 20.7602 26.5327 20.3925 26.5359H15.0941C14.7256 26.5359 14.3721 26.3875 14.1116 26.1234C13.851 25.8593 13.7046 25.5011 13.7046 25.1276V18.8164L21.7762 23.5381Z" fill="#FBB117"/>
<path d="M23.4134 8.04091C25.6041 8.04091 27.3801 6.24089 27.3801 4.02045C27.3801 1.80002 25.6041 0 23.4134 0C21.2227 0 19.4468 1.80002 19.4468 4.02045C19.4468 6.24089 21.2227 8.04091 23.4134 8.04091Z" fill="#FFCC04"/>
<path d="M8.07166 15.0889V25.1283C8.07166 25.5018 7.92527 25.86 7.66469 26.1242C7.40411 26.3883 7.05069 26.5366 6.68218 26.5366H1.38948C1.02097 26.5366 0.667546 26.3883 0.406969 26.1242C0.146391 25.86 0 25.5018 0 25.1283L0 19.8106L8.07166 15.0889Z" fill="#223250"/>
<g style="mix-blend-mode:multiply">
<path d="M16.2933 10.2793L10.3088 13.7855L8.07178 15.0886V5.63939L9.61116 4.73946C9.82238 4.61585 10.062 4.55078 10.3059 4.55078C10.5498 4.55078 10.7894 4.61585 11.0006 4.73946L16.2933 7.83661C16.5053 7.95999 16.6815 8.13788 16.804 8.35232C16.9265 8.56676 16.991 8.81016 16.991 9.05794C16.991 9.30573 16.9265 9.54912 16.804 9.76356C16.6815 9.978 16.5053 10.1559 16.2933 10.2793Z" fill="#009CE0"/>
</g>
<path d="M8.07185 5.63965V15.0889L0.000189645 19.8106V11.1795C-0.0039137 10.9277 0.058638 10.6795 0.181332 10.4606C0.304026 10.2417 0.482375 10.0601 0.697811 9.93476L2.23143 9.0582L8.07185 5.63965Z" fill="#005FC5"/>
<path d="M56.202 18.8287V24.5438C56.2051 24.8123 56.1554 25.0787 56.0558 25.3274C55.9562 25.5762 55.8087 25.8024 55.6219 25.9928C55.4351 26.1832 55.2128 26.334 54.9679 26.4363C54.7231 26.5387 54.4605 26.5906 54.1956 26.5891H52.466V19.3838C52.4967 19.0826 52.4623 18.7782 52.3652 18.4918C52.2682 18.2054 52.1108 17.9439 51.9039 17.7253C51.6971 17.5068 51.4458 17.3365 51.1675 17.2263C50.8892 17.1161 50.5906 17.0687 50.2924 17.0872C48.9202 17.0872 47.9862 17.8937 47.9862 19.6877V24.5438C47.9862 25.08 47.776 25.5943 47.4019 25.9735C47.0278 26.3527 46.5204 26.5657 45.9914 26.5657H44.2617V15.9711C44.2617 15.4349 44.4719 14.9206 44.846 14.5414C45.2201 14.1622 45.7275 13.9492 46.2566 13.9492H47.9862V15.1179C48.6608 14.1829 49.9061 13.5752 51.555 13.5752C54.0573 13.5927 56.202 15.416 56.202 18.8287Z" fill="#223250"/>
<path d="M71.5673 13.9486V25.9573C71.5673 30.2057 68.2983 31.9997 64.9832 31.9997C62.3887 31.9997 60.2151 31.018 59.0678 28.9435L60.8436 27.9033C61.1925 27.7064 61.5911 27.6186 61.9891 27.6508C62.3872 27.683 62.7669 27.8339 63.0806 28.0845C63.6718 28.5028 64.3842 28.7085 65.1043 28.6688C66.8339 28.6688 67.9236 27.7572 67.9236 25.9632V24.7945C67.4855 25.3383 66.9276 25.7702 66.2947 26.0554C65.6618 26.3406 64.9716 26.4712 64.2798 26.4365C63.458 26.4314 62.6456 26.2601 61.89 25.9326C61.1344 25.6051 60.4509 25.128 59.8796 24.5293C59.3083 23.9307 58.8606 23.2224 58.5628 22.4461C58.265 21.6698 58.1231 20.8411 58.1453 20.0085C58.1231 19.1759 58.265 18.3471 58.5628 17.5708C58.8606 16.7945 59.3083 16.0863 59.8796 15.4876C60.4509 14.889 61.1344 14.4119 61.89 14.0844C62.6456 13.7569 63.458 13.5856 64.2798 13.5804C64.9721 13.5465 65.6625 13.6779 66.2955 13.9642C66.9284 14.2504 67.4861 14.6835 67.9236 15.2284C67.9266 14.8899 68.0606 14.5661 68.2967 14.3268C68.5329 14.0874 68.8523 13.9516 69.1862 13.9486H71.5673ZM67.9236 20.0143C67.9512 19.4033 67.7976 18.7978 67.4827 18.276C67.1677 17.7542 66.7058 17.34 66.1564 17.0867C65.607 16.8335 64.9954 16.7528 64.4004 16.8551C63.8053 16.9574 63.2542 17.238 62.8179 17.6607C62.3817 18.0834 62.0804 18.6289 61.9528 19.2268C61.8252 19.8247 61.8772 20.4476 62.1022 21.0152C62.3271 21.5829 62.7146 22.0692 63.2147 22.4116C63.7149 22.754 64.3047 22.9367 64.9082 22.9362C65.3 22.964 65.6932 22.9085 66.0626 22.7733C66.432 22.6381 66.7695 22.4262 67.0534 22.1511C67.3373 21.876 67.5613 21.5438 67.7112 21.1759C67.861 20.8079 67.9334 20.4123 67.9236 20.0143Z" fill="#223250"/>
<path d="M82.0425 26.5882L78.0528 21.0017V26.5882H74.311V8.89356H76.0407C76.3031 8.89279 76.5632 8.94453 76.8058 9.04579C77.0485 9.14706 77.2691 9.29587 77.455 9.4837C77.6408 9.67153 77.7883 9.89468 77.8889 10.1404C77.9895 10.3861 78.0413 10.6495 78.0413 10.9155V19.4882L81.1892 14.8132C81.3708 14.5409 81.6156 14.3179 81.9021 14.164C82.1886 14.0102 82.5081 13.9301 82.8324 13.9308H86.1475L81.6043 20.2537L86.2686 26.5707L82.0425 26.5882Z" fill="#223250"/>
<path d="M99.7029 13.9492V24.5438C99.7029 25.08 99.4927 25.5943 99.1186 25.9735C98.7445 26.3526 98.2371 26.5657 97.708 26.5657H95.9784V25.3969C95.5089 25.9194 94.9306 26.3294 94.2854 26.5973C93.6402 26.8651 92.9443 26.9841 92.2481 26.9455C88.9849 26.9455 86.2866 24.0237 86.2866 20.272C86.2866 16.5204 88.9791 13.5927 92.2481 13.5927C92.9419 13.5552 93.6353 13.6741 94.2784 13.9409C94.9214 14.2076 95.4981 14.6156 95.9668 15.1354C95.9668 14.8255 96.0883 14.5282 96.3046 14.309C96.5208 14.0898 96.8141 13.9667 97.1199 13.9667L99.7029 13.9492ZM95.9611 20.272C95.9611 19.4739 95.6482 18.7084 95.0914 18.144C94.5346 17.5796 93.7793 17.2625 92.9919 17.2625C92.2044 17.2625 91.4491 17.5796 90.8923 18.144C90.3355 18.7084 90.0226 19.4739 90.0226 20.272C90.0226 21.0702 90.3355 21.8357 90.8923 22.4001C91.4491 22.9645 92.2044 23.2815 92.9919 23.2815C93.7793 23.2815 94.5346 22.9645 95.0914 22.4001C95.6482 21.8357 95.9611 21.0702 95.9611 20.272Z" fill="#223250"/>
<path d="M112 22.7904C112 25.7123 109.504 26.9394 106.811 26.9394C104.32 26.9394 102.424 25.9811 101.449 23.93L103.179 22.9365C103.524 22.738 103.92 22.6487 104.315 22.6799C104.711 22.7112 105.088 22.8616 105.399 23.1118C105.811 23.4171 106.313 23.5716 106.823 23.5501C107.722 23.5501 108.172 23.2755 108.172 22.7671C108.172 21.3763 102.032 22.1126 102.032 17.7357C102.032 14.9774 104.338 13.5866 106.926 13.5866C107.901 13.556 108.866 13.7908 109.721 14.2667C110.576 14.7426 111.289 15.442 111.787 16.2923L109.942 17.3032C109.628 17.4792 109.273 17.5641 108.915 17.5486C108.557 17.5331 108.21 17.4179 107.912 17.2156C107.62 17.0213 107.276 16.9215 106.926 16.9292C106.275 16.9292 105.877 17.1805 105.877 17.6363C105.866 19.0797 112 18.1155 112 22.7904Z" fill="#223250"/>
<path d="M34.4492 15.7774V18.0038C32.9041 17.7525 30.7074 18.3837 30.7074 20.8906V24.5429C30.7105 24.8104 30.6611 25.0758 30.5622 25.3238C30.4634 25.5718 30.3169 25.7975 30.1313 25.9877C29.9458 26.178 29.7249 26.329 29.4813 26.4321C29.2378 26.5351 28.9765 26.5882 28.7126 26.5882H26.9829V18.6583C26.9851 17.3888 27.4731 16.1698 28.3441 15.2575C29.2151 14.3453 30.4012 13.811 31.653 13.7671H32.414C32.6786 13.7609 32.9417 13.8083 33.188 13.9064C33.4343 14.0046 33.6588 14.1516 33.8483 14.3388C34.0379 14.526 34.1887 14.7497 34.2918 14.9967C34.395 15.2437 34.4485 15.5091 34.4492 15.7774Z" fill="#223250"/>
<path d="M39.258 13.9482H40.9877V24.5428C40.9877 25.0791 40.7775 25.5934 40.4034 25.9726C40.0293 26.3517 39.5219 26.5648 38.9928 26.5648H37.2632V15.9702C37.2632 15.4339 37.4734 14.9196 37.8475 14.5404C38.2216 14.1613 38.729 13.9482 39.258 13.9482Z" fill="#223250"/>
<path d="M39.1362 12.9733C40.3621 12.9733 41.3559 11.966 41.3559 10.7235C41.3559 9.48091 40.3621 8.47363 39.1362 8.47363C37.9103 8.47363 36.9165 9.48091 36.9165 10.7235C36.9165 11.966 37.9103 12.9733 39.1362 12.9733Z" fill="#223250"/>
</g>
<defs>
<clipPath id="clip0_3183_92522">
<rect width="112" height="32" fill="white"/>
</clipPath>
</defs>
</svg>
