<svg width="72" height="72" viewBox="0 0 72 72" fill="none" xmlns="http://www.w3.org/2000/svg">
<path d="M29.2505 62.5499C34.5905 60.4499 33.4205 54.6599 30.7205 50.9999C28.0505 47.2499 24.3605 44.6699 20.6405 42.1799C17.9862 40.5069 15.6164 38.4206 13.6205 35.9999C12.7805 35.0099 11.0705 33.1799 12.8105 32.8199C14.5805 32.4599 17.6405 34.1999 19.2005 34.8599C21.9305 35.9999 24.6305 37.3199 27.1505 38.8799L30.1805 33.7799C25.5005 30.6899 19.5005 27.9599 13.9205 27.1499C10.7405 26.6699 7.38048 27.3299 6.30048 30.7799C5.34048 33.7499 6.87048 36.7499 8.61048 39.0899C12.7205 44.5799 19.1105 47.2199 23.8805 51.9599C24.9005 52.9499 26.1305 54.1199 26.7305 55.4999C27.3605 56.8199 27.2105 56.9099 25.8005 56.9099C22.0805 56.9099 17.4305 53.9999 14.4005 52.0799L11.3705 57.1799C15.9605 59.9999 23.6405 64.4099 29.2505 62.5499ZM62.5205 15.7499C63.1805 15.0899 63.1805 14.0099 62.5205 13.3799L58.6205 9.47985C58.3063 9.17702 57.8869 9.00781 57.4505 9.00781C57.0141 9.00781 56.5947 9.17702 56.2805 9.47985L53.2205 12.5399L59.4605 18.7799L62.5205 15.7499ZM33.0005 32.7599V38.9999H39.2405L57.6905 20.5499L51.4505 14.3099L33.0005 32.7599Z" fill="#005FC5"/>
</svg>
