<svg width="40" height="40" viewBox="0 0 40 40" fill="none" xmlns="http://www.w3.org/2000/svg">
<circle cx="20" cy="20" r="14" fill="#D7E9FF"/>
<path d="M16.9281 24V22.6705L20.0346 19.794C20.2988 19.5384 20.5204 19.3082 20.6994 19.1037C20.8812 18.8991 21.019 18.6989 21.1127 18.5028C21.2065 18.304 21.2534 18.0895 21.2534 17.8594C21.2534 17.6037 21.1951 17.3835 21.0787 17.1989C20.9622 17.0114 20.8031 16.8679 20.6014 16.7685C20.3997 16.6662 20.171 16.6151 19.9153 16.6151C19.6483 16.6151 19.4153 16.669 19.2164 16.777C19.0176 16.8849 18.8642 17.0398 18.7562 17.2415C18.6483 17.4432 18.5943 17.6832 18.5943 17.9616H16.8429C16.8429 17.3906 16.9721 16.8949 17.2306 16.4744C17.4892 16.054 17.8514 15.7287 18.3173 15.4986C18.7832 15.2685 19.3201 15.1534 19.9281 15.1534C20.5531 15.1534 21.0971 15.2642 21.5602 15.4858C22.0261 15.7045 22.3883 16.0085 22.6468 16.3977C22.9054 16.7869 23.0346 17.233 23.0346 17.7358C23.0346 18.0653 22.9693 18.3906 22.8386 18.7116C22.7108 19.0327 22.4821 19.3892 22.1525 19.7812C21.823 20.1705 21.3585 20.6378 20.7591 21.1832L19.4849 22.4318V22.4915H23.1497V24H16.9281Z" fill="#005FC5"/>
<path d="M20 39C17.5049 39 15.0342 38.5086 12.729 37.5537C10.4238 36.5989 8.32929 35.1993 6.56498 33.435C4.80066 31.6707 3.40113 29.5762 2.44629 27.271C1.49145 24.9658 1 22.4951 1 20C0.999999 17.5049 1.49145 15.0342 2.44629 12.729C3.40113 10.4238 4.80066 8.32929 6.56497 6.56497C8.32928 4.80066 10.4238 3.40113 12.729 2.44629C15.0342 1.49145 17.5049 1 20 1C22.4951 1 24.9658 1.49145 27.271 2.44629C29.5762 3.40113 31.6707 4.80066 33.435 6.56497C35.1993 8.32928 36.5989 10.4238 37.5537 12.729C38.5085 15.0342 39 17.5049 39 20C39 22.4951 38.5086 24.9658 37.5537 27.271C36.5989 29.5762 35.1993 31.6707 33.435 33.435C31.6707 35.1993 29.5762 36.5989 27.271 37.5537C24.9658 38.5086 22.4951 39 20 39L20 39Z" stroke="#005FC5" stroke-width="2"/>
</svg>
