<svg width="325" height="325" viewBox="0 0 325 325" fill="none" xmlns="http://www.w3.org/2000/svg">
<g filter="url(#filter0_d_182_15242)">
<path d="M120 102.5C120 79.0279 139.028 60 162.5 60C185.972 60 205 79.0279 205 102.5C205 125.972 185.972 145 162.5 145C139.028 145 120 125.972 120 102.5Z" fill="#005FC5"/>
</g>
<path fill-rule="evenodd" clip-rule="evenodd" d="M161 107.592H165C165.55 107.592 166 107.142 166 106.592V101.592H167.59C168.48 101.592 168.93 100.512 168.3 99.8825L163.71 95.2925C163.523 95.1052 163.27 95 163.005 95C162.74 95 162.487 95.1052 162.3 95.2925L157.71 99.8825C157.08 100.512 157.52 101.592 158.41 101.592H160V106.592C160 107.142 160.45 107.592 161 107.592ZM157 109.592H169C169.55 109.592 170 110.042 170 110.592C170 111.142 169.55 111.592 169 111.592H157C156.45 111.592 156 111.142 156 110.592C156 110.042 156.45 109.592 157 109.592Z" fill="white"/>
<defs>
<filter id="filter0_d_182_15242" x="0" y="0" width="325" height="325" filterUnits="userSpaceOnUse" color-interpolation-filters="sRGB">
<feFlood flood-opacity="0" result="BackgroundImageFix"/>
<feColorMatrix in="SourceAlpha" type="matrix" values="0 0 0 0 0 0 0 0 0 0 0 0 0 0 0 0 0 0 127 0" result="hardAlpha"/>
<feOffset dy="60"/>
<feGaussianBlur stdDeviation="60"/>
<feColorMatrix type="matrix" values="0 0 0 0 0.14902 0 0 0 0 0.2 0 0 0 0 0.301961 0 0 0 0.05 0"/>
<feBlend mode="normal" in2="BackgroundImageFix" result="effect1_dropShadow_182_15242"/>
<feBlend mode="normal" in="SourceGraphic" in2="effect1_dropShadow_182_15242" result="shape"/>
</filter>
</defs>
</svg>
