<svg width="40" height="40" viewBox="0 0 40 40" fill="none" xmlns="http://www.w3.org/2000/svg">
<path fill-rule="evenodd" clip-rule="evenodd" d="M22.5 10.8346C22.5 12.2153 21.3807 13.3346 20 13.3346C18.6193 13.3346 17.5 12.2153 17.5 10.8346C17.5 9.45392 18.6193 8.33464 20 8.33464C21.3807 8.33464 22.5 9.45392 22.5 10.8346ZM13.3333 25.8346C13.3333 27.2153 12.214 28.3346 10.8333 28.3346C9.45262 28.3346 8.33333 27.2153 8.33333 25.8346C8.33333 24.4539 9.45262 23.3346 10.8333 23.3346C12.214 23.3346 13.3333 24.4539 13.3333 25.8346ZM31.6667 25.8346C31.6667 27.2153 30.5474 28.3346 29.1667 28.3346C27.7859 28.3346 26.6667 27.2153 26.6667 25.8346C26.6667 24.4539 27.7859 23.3346 29.1667 23.3346C30.5474 23.3346 31.6667 24.4539 31.6667 25.8346ZM20 15.0013C22.0495 15.0013 23.7534 13.5216 24.1016 11.5722C24.0939 11.6152 24.0856 11.658 24.0766 11.7006C27.5674 13.2609 30 16.7637 30 20.8346C30 21.1409 29.9862 21.444 29.9593 21.7433C29.7027 21.6938 29.4377 21.668 29.1667 21.668C26.8655 21.668 25 23.5334 25 25.8346C25 28.1358 26.8655 30.0013 29.1667 30.0013C31.4678 30.0013 33.3333 28.1358 33.3333 25.8346C33.3333 24.4239 32.6322 23.1769 31.5594 22.4231C31.6301 21.9037 31.6667 21.3734 31.6667 20.8346C31.6667 15.8191 28.5017 11.5427 24.06 9.89383C23.6335 8.04576 21.9776 6.66797 20 6.66797C18.0223 6.66797 16.3665 8.04576 15.94 9.89383C11.4983 11.5427 8.33333 15.8191 8.33333 20.8346C8.33333 21.3734 8.36986 21.9037 8.44056 22.4231C7.36777 23.1769 6.66666 24.4239 6.66666 25.8346C6.66666 28.1358 8.53214 30.0013 10.8333 30.0013C13.1345 30.0013 15 28.1358 15 25.8346C15 23.5334 13.1345 21.668 10.8333 21.668C10.5623 21.668 10.2973 21.6938 10.0407 21.7433C10.0138 21.444 10 21.1409 10 20.8346C10 16.7637 12.4326 13.2609 15.9234 11.7006C15.8973 11.5771 15.8767 11.4517 15.8618 11.3245C16.1043 13.3948 17.8645 15.0013 20 15.0013ZM15.8333 10.8346C15.8333 10.8347 15.8333 10.8347 15.8333 10.8347C15.8333 10.8706 15.8338 10.9065 15.8347 10.9422M26.1563 28.7155C26.5577 29.1348 27.0458 29.4704 27.5919 29.6935C25.5514 31.4438 22.8992 32.5013 20 32.5013C17.1008 32.5013 14.4486 31.4438 12.4081 29.6935C12.9542 29.4704 13.4423 29.1348 13.8437 28.7155C15.5409 30.0433 17.678 30.8346 20 30.8346C22.3219 30.8346 24.4591 30.0433 26.1563 28.7155Z" fill="#AAAAAA"/>
</svg>
