<svg width="16" height="14" viewBox="0 0 16 14" fill="none" xmlns="http://www.w3.org/2000/svg">
<path d="M0.5 8.90039C0.632608 8.90039 0.759785 8.95307 0.853553 9.04684C0.947322 9.14061 1 9.26778 1 9.40039V11.9004C1 12.1656 1.10536 12.42 1.29289 12.6075C1.48043 12.795 1.73478 12.9004 2 12.9004H14C14.2652 12.9004 14.5196 12.795 14.7071 12.6075C14.8946 12.42 15 12.1656 15 11.9004V9.40039C15 9.26778 15.0527 9.14061 15.1464 9.04684C15.2402 8.95307 15.3674 8.90039 15.5 8.90039C15.6326 8.90039 15.7598 8.95307 15.8536 9.04684C15.9473 9.14061 16 9.26778 16 9.40039V11.9004C16 12.4308 15.7893 12.9395 15.4142 13.3146C15.0391 13.6897 14.5304 13.9004 14 13.9004H2C1.46957 13.9004 0.960859 13.6897 0.585786 13.3146C0.210714 12.9395 0 12.4308 0 11.9004V9.40039C0 9.26778 0.0526784 9.14061 0.146447 9.04684C0.240215 8.95307 0.367392 8.90039 0.5 8.90039Z" fill="#868686"/>
<path d="M7.64614 0.146894C7.69259 0.100331 7.74776 0.0633877 7.80851 0.0381812C7.86926 0.0129748 7.93438 0 8.00014 0C8.06591 0 8.13103 0.0129748 8.19178 0.0381812C8.25252 0.0633877 8.3077 0.100331 8.35414 0.146894L11.3541 3.14689C11.448 3.24078 11.5008 3.36812 11.5008 3.50089C11.5008 3.63367 11.448 3.76101 11.3541 3.85489C11.2603 3.94878 11.1329 4.00153 11.0001 4.00153C10.8674 4.00153 10.74 3.94878 10.6461 3.85489L8.50014 1.70789V10.5009C8.50014 10.6335 8.44747 10.7607 8.3537 10.8544C8.25993 10.9482 8.13275 11.0009 8.00014 11.0009C7.86754 11.0009 7.74036 10.9482 7.64659 10.8544C7.55282 10.7607 7.50014 10.6335 7.50014 10.5009V1.70789L5.35414 3.85489C5.30766 3.90138 5.25247 3.93826 5.19173 3.96342C5.13099 3.98858 5.06589 4.00153 5.00014 4.00153C4.9344 4.00153 4.8693 3.98858 4.80856 3.96342C4.74782 3.93826 4.69263 3.90138 4.64614 3.85489C4.59966 3.80841 4.56278 3.75322 4.53762 3.69248C4.51246 3.63174 4.49951 3.56664 4.49951 3.50089C4.49951 3.43515 4.51246 3.37005 4.53762 3.30931C4.56278 3.24857 4.59966 3.19338 4.64614 3.14689L7.64614 0.146894Z" fill="#868686"/>
</svg>
