<svg width="17" height="17" viewBox="0 0 17 17" fill="none" xmlns="http://www.w3.org/2000/svg">
<path d="M16.552 7.93066L16.0642 7.42645C15.4209 6.76151 15.1204 5.83693 15.2498 4.92082L15.3479 4.22645C15.4097 3.78945 15.1136 3.38254 14.679 3.30574L13.9883 3.18461C13.0769 3.02477 12.2902 2.45325 11.8565 1.63584L11.5281 1.01704C11.3223 0.628327 10.8433 0.472369 10.4475 0.666327L9.81704 0.974381C8.98597 1.38046 8.01404 1.38046 7.18296 0.974381L6.5525 0.666327C6.15667 0.472369 5.67771 0.628327 5.47108 1.01783L5.14267 1.63703C4.709 2.45467 3.92222 3.02637 3.0106 3.18625L2.32025 3.30733C1.88563 3.38333 1.58954 3.79024 1.65129 4.22724L1.74939 4.92161C1.87882 5.83772 1.5783 6.7623 0.934977 7.42725L0.447168 7.93145C0.140001 8.24891 0.140001 8.75162 0.447168 9.06908L0.934978 9.57328C1.5783 10.2382 1.87882 11.1628 1.74939 12.0789L1.65129 12.7733C1.58954 13.2103 1.88563 13.6172 2.32025 13.694L3.01092 13.8151C3.92235 13.975 4.70902 14.5465 5.14274 15.3639L5.47108 15.9827C5.67771 16.3722 6.15667 16.5282 6.55329 16.3342L7.18246 16.0264C8.0138 15.6197 8.98632 15.6195 9.81786 16.0258L10.4475 16.3334C10.8441 16.5274 11.3223 16.3714 11.5297 15.9819L11.8581 15.3631C12.2918 14.5457 13.0784 13.9742 13.9899 13.8143L14.6805 13.6932C15.1152 13.6172 15.4113 13.2095 15.3495 12.7725L15.2514 12.0781C15.122 11.162 15.4225 10.2374 16.0658 9.57249L16.5536 9.06828C16.8584 8.75162 16.8584 8.24812 16.552 7.93066ZM9.17569 10.5269C8.36529 11.3373 7.05138 11.3373 6.24098 10.5269L5.33333 9.61928C5.02422 9.31017 5.02422 8.80899 5.33333 8.49987C5.64245 8.19075 6.14363 8.19075 6.45275 8.49987L6.80069 8.84781C7.30197 9.34908 8.1147 9.34908 8.61598 8.84781L11.3389 6.12487C11.648 5.81575 12.1492 5.81575 12.4583 6.12487C12.7675 6.43399 12.7675 6.93517 12.4583 7.24429L9.17569 10.5269Z" fill="#39C24F"/>
</svg>
