<svg width="16" height="16" viewBox="0 0 16 16" fill="none" xmlns="http://www.w3.org/2000/svg">
<path fill-rule="evenodd" clip-rule="evenodd" d="M8 0C3.576 0 0 3.576 0 8C0 12.424 3.576 16 8 16C12.424 16 16 12.424 16 8C16 3.576 12.424 0 8 0ZM11.44 11.44C11.128 11.752 10.624 11.752 10.312 11.44L7.99996 9.12798L5.68796 11.44C5.37596 11.752 4.87196 11.752 4.55996 11.44C4.41016 11.2905 4.32598 11.0876 4.32598 10.876C4.32598 10.6644 4.41016 10.4614 4.55996 10.312L6.87196 7.99998L4.55996 5.68798C4.41016 5.53851 4.32598 5.33559 4.32598 5.12398C4.32598 4.91236 4.41016 4.70944 4.55996 4.55998C4.87196 4.24798 5.37596 4.24798 5.68796 4.55998L7.99996 6.87198L10.312 4.55998C10.624 4.24798 11.128 4.24798 11.44 4.55998C11.752 4.87198 11.752 5.37598 11.44 5.68798L9.12796 7.99998L11.44 10.312C11.744 10.616 11.744 11.128 11.44 11.44Z" fill="#FF0000"/>
</svg>
