<svg width="24" height="24" viewBox="0 0 24 24" fill="none" xmlns="http://www.w3.org/2000/svg">
  <circle cx="12" cy="12" r="12" fill="#C4C4C4"/>
  <path d="M17.2496 6.75794C16.9246 6.43294 16.3996 6.43294 16.0746 6.75794L11.9996 10.8246L7.92461 6.74961C7.59961 6.42461 7.07461 6.42461 6.74961 6.74961C6.42461 7.07461 6.42461 7.59961 6.74961 7.92461L10.8246 11.9996L6.74961 16.0746C6.42461 16.3996 6.42461 16.9246 6.74961 17.2496C7.07461 17.5746 7.59961 17.5746 7.92461 17.2496L11.9996 13.1746L16.0746 17.2496C16.3996 17.5746 16.9246 17.5746 17.2496 17.2496C17.5746 16.9246 17.5746 16.3996 17.2496 16.0746L13.1746 11.9996L17.2496 7.92461C17.5663 7.60794 17.5663 7.07461 17.2496 6.75794Z" fill="#223250"/>
</svg>
