<svg width="22" height="23" viewBox="0 0 22 23" fill="none" xmlns="http://www.w3.org/2000/svg">
<path d="M2.33007 4.57787L2.97825 3.92969L18.3324 19.2839L17.6843 19.932L14.6155 16.8633C13.362 17.3891 11.9852 17.6797 10.5408 17.6797C6.36136 17.6797 2.75002 15.2475 1.04492 11.7214C1.93002 9.89095 3.32874 8.35538 5.05393 7.30172L2.33007 4.57787ZM10.5408 16.763C11.7258 16.763 12.8608 16.5489 13.9093 16.1571L12.8751 15.1228C12.2112 15.5792 11.4072 15.8464 10.5408 15.8464C8.26258 15.8464 6.41576 13.9995 6.41576 11.7214C6.41576 10.8549 6.68289 10.0509 7.13929 9.38708L5.72274 7.97054C4.18826 8.85954 2.922 10.1602 2.07499 11.7214C3.70415 14.7242 6.88436 16.763 10.5408 16.763ZM19.0065 11.7214C17.3774 8.71853 14.1972 6.67969 10.5408 6.67969C9.48228 6.67969 8.46371 6.85054 7.51112 7.16619L6.79343 6.4485C7.9578 6.00556 9.22094 5.76302 10.5408 5.76302C14.7201 5.76302 18.3315 8.19519 20.0366 11.7214C19.2001 13.4514 17.9046 14.918 16.3083 15.9634L15.6448 15.2998C17.0507 14.4187 18.2127 13.1844 19.0065 11.7214ZM10.5408 7.59635C12.8189 7.59635 14.6658 9.44316 14.6658 11.7214C14.6658 12.4688 14.4669 13.1698 14.1193 13.7744L13.4406 13.0957C13.6384 12.6792 13.7491 12.2131 13.7491 11.7214C13.7491 9.94944 12.3127 8.51303 10.5408 8.51303C10.049 8.51303 9.58293 8.62369 9.1664 8.82147L8.48769 8.14276C9.09229 7.79516 9.79331 7.59635 10.5408 7.59635ZM7.33242 11.7214C7.33242 13.4933 8.76884 14.9297 10.5408 14.9297C11.1533 14.9297 11.7256 14.7581 12.2125 14.4603L7.80184 10.0496C7.50405 10.5365 7.33242 11.1088 7.33242 11.7214Z" fill="black"/>
</svg>
