<svg width="14" height="16" viewBox="0 0 14 16" fill="none" xmlns="http://www.w3.org/2000/svg">
<g clip-path="url(#clip0_702_10395)">
<path d="M3.63636 7.27273H9.45455V5.09091C9.45455 4.28788 9.17045 3.60227 8.60227 3.03409C8.03409 2.46591 7.34848 2.18182 6.54545 2.18182C5.74242 2.18182 5.05682 2.46591 4.48864 3.03409C3.92045 3.60227 3.63636 4.28788 3.63636 5.09091V7.27273ZM13.0909 8.36364V14.9091C13.0909 15.2121 12.9848 15.4697 12.7727 15.6818C12.5606 15.8939 12.303 16 12 16H1.09091C0.787879 16 0.530303 15.8939 0.318182 15.6818C0.106061 15.4697 0 15.2121 0 14.9091V8.36364C0 8.06061 0.106061 7.80303 0.318182 7.59091C0.530303 7.37879 0.787879 7.27273 1.09091 7.27273H1.45455V5.09091C1.45455 3.69697 1.95455 2.5 2.95455 1.5C3.95455 0.5 5.15152 0 6.54545 0C7.93939 0 9.13636 0.5 10.1364 1.5C11.1364 2.5 11.6364 3.69697 11.6364 5.09091V7.27273H12C12.303 7.27273 12.5606 7.37879 12.7727 7.59091C12.9848 7.80303 13.0909 8.06061 13.0909 8.36364Z" fill="white"/>
</g>
<defs>
<clipPath id="clip0_702_10395">
<rect width="13.0909" height="16" fill="white"/>
</clipPath>
</defs>
</svg>
