<svg width="18" height="16" viewBox="0 0 18 16" fill="none" xmlns="http://www.w3.org/2000/svg">
<path d="M17.9937 7.98438C17.9937 8.54688 17.525 8.9875 16.9937 8.9875H15.9937L16.0156 13.9906C16.0187 15.1 15.1219 16 14.0156 16H4.00313C2.89844 16 2.00281 15.1031 2.00281 14V8.9875H1.00156C0.438125 8.9875 0 8.54688 0 7.98438C0 7.70312 0.093875 7.45312 0.312813 7.23438L8.325 0.2505C8.54375 0.0313125 8.79375 0 9.0125 0C9.23125 0 9.48125 0.062625 9.67188 0.219187L13 3.14687V2C13 1.44781 13.4469 1 14 1H15C15.5531 1 16 1.44781 16 2V5.78125L17.65 7.23438C17.9 7.45312 18.0281 7.70312 17.9937 7.98438ZM7.75 6C7.33437 6 7 6.33437 7 6.75V9.25C7 9.66562 7.33437 10 7.75 10H10.25C10.6656 10 11 9.66562 11 9.25V6.75C11 6.33437 10.6656 6 10.25 6H7.75Z" fill="white"/>
</svg>
