<svg width="112" height="32" viewBox="0 0 112 32" fill="none" xmlns="http://www.w3.org/2000/svg">
<g clip-path="url(#clip0_3183_103668)">
<path d="M21.7768 14.9074V23.5385L13.7051 18.8168V17.8175C13.7038 17.6273 13.7529 17.4402 13.8472 17.2758C13.9415 17.1113 14.0776 16.9755 14.2413 16.8825L19.6954 13.686C19.9067 13.5631 20.1462 13.4986 20.3898 13.499C20.6334 13.4995 20.8726 13.5648 21.0835 13.6885C21.2943 13.8123 21.4693 13.99 21.591 14.2039C21.7127 14.4178 21.7768 14.6604 21.7768 14.9074Z" fill="#FFCC04"/>
<path d="M21.7767 23.5381V25.1276C21.7752 25.3161 21.7381 25.5026 21.6672 25.6769C21.5959 25.8414 21.4963 25.9918 21.3732 26.121C21.1125 26.3838 20.7607 26.5327 20.393 26.5359H15.0946C14.726 26.5359 14.3726 26.3875 14.112 26.1234C13.8515 25.8593 13.7051 25.5011 13.7051 25.1276V18.8164L21.7767 23.5381Z" fill="#FBB117"/>
<path d="M23.4139 8.04091C25.6046 8.04091 27.3805 6.24089 27.3805 4.02045C27.3805 1.80002 25.6046 0 23.4139 0C21.2232 0 19.4473 1.80002 19.4473 4.02045C19.4473 6.24089 21.2232 8.04091 23.4139 8.04091Z" fill="#FFDD00"/>
<path d="M8.07166 15.0889V25.1283C8.07166 25.5018 7.92527 25.86 7.66469 26.1242C7.40411 26.3883 7.05069 26.5366 6.68218 26.5366H1.38948C1.02097 26.5366 0.667546 26.3883 0.406969 26.1242C0.146391 25.86 0 25.5018 0 25.1283L0 19.8106L8.07166 15.0889Z" fill="#223250"/>
<g style="mix-blend-mode:multiply">
<path d="M16.2938 10.2793L10.3093 13.7855L8.07227 15.0886V5.63939L9.61165 4.73946C9.82287 4.61585 10.0625 4.55078 10.3064 4.55078C10.5503 4.55078 10.7899 4.61585 11.0011 4.73946L16.2938 7.83661C16.5058 7.95999 16.682 8.13788 16.8045 8.35232C16.9269 8.56676 16.9914 8.81016 16.9914 9.05794C16.9914 9.30573 16.9269 9.54912 16.8045 9.76356C16.682 9.978 16.5058 10.1559 16.2938 10.2793Z" fill="#009CE0"/>
</g>
<path d="M8.07185 5.63965V15.0889L0.000189645 19.8106V11.1795C-0.0039137 10.9277 0.058638 10.6795 0.181332 10.4606C0.304026 10.2417 0.482375 10.0601 0.697811 9.93476L2.23143 9.0582L8.07185 5.63965Z" fill="#005FC5"/>
<path d="M56.202 18.8287V24.5438C56.2051 24.8123 56.1554 25.0787 56.0558 25.3274C55.9562 25.5762 55.8087 25.8024 55.6219 25.9928C55.4351 26.1832 55.2128 26.334 54.9679 26.4363C54.7231 26.5387 54.4605 26.5906 54.1956 26.5891H52.466V19.3838C52.4967 19.0826 52.4623 18.7782 52.3652 18.4918C52.2682 18.2054 52.1108 17.9439 51.9039 17.7253C51.6971 17.5068 51.4458 17.3365 51.1675 17.2263C50.8892 17.1161 50.5906 17.0687 50.2924 17.0872C48.9202 17.0872 47.9862 17.8937 47.9862 19.6877V24.5438C47.9862 25.08 47.776 25.5943 47.4019 25.9735C47.0278 26.3527 46.5204 26.5657 45.9914 26.5657H44.2617V15.9711C44.2617 15.4349 44.4719 14.9206 44.846 14.5414C45.2201 14.1622 45.7275 13.9492 46.2566 13.9492H47.9862V15.1179C48.6608 14.1829 49.9061 13.5752 51.555 13.5752C54.0573 13.5927 56.202 15.416 56.202 18.8287Z" fill="#223250"/>
<path d="M71.5669 13.9486V25.9573C71.5669 30.2057 68.2978 31.9997 64.9827 31.9997C62.3882 31.9997 60.2146 31.018 59.0673 28.9435L60.8431 27.9033C61.192 27.7064 61.5906 27.6186 61.9886 27.6508C62.3867 27.683 62.7665 27.8339 63.0801 28.0845C63.6713 28.5028 64.3838 28.7085 65.1038 28.6688C66.8334 28.6688 67.9231 27.7572 67.9231 25.9632V24.7945C67.485 25.3383 66.9271 25.7702 66.2942 26.0554C65.6613 26.3406 64.9711 26.4712 64.2793 26.4365C63.4576 26.4314 62.6451 26.2601 61.8895 25.9326C61.1339 25.6051 60.4504 25.128 59.8791 24.5293C59.3078 23.9307 58.8601 23.2224 58.5623 22.4461C58.2645 21.6698 58.1226 20.8411 58.1448 20.0085C58.1226 19.1759 58.2645 18.3471 58.5623 17.5708C58.8601 16.7945 59.3078 16.0863 59.8791 15.4876C60.4504 14.889 61.1339 14.4119 61.8895 14.0844C62.6451 13.7569 63.4576 13.5856 64.2793 13.5804C64.9716 13.5465 65.6621 13.6779 66.295 13.9642C66.9279 14.2504 67.4856 14.6835 67.9231 15.2284C67.9261 14.8899 68.0601 14.5661 68.2962 14.3268C68.5324 14.0874 68.8518 13.9516 69.1857 13.9486H71.5669ZM67.9231 20.0143C67.9507 19.4033 67.7972 18.7978 67.4822 18.276C67.1672 17.7542 66.7053 17.34 66.1559 17.0867C65.6065 16.8335 64.9949 16.7528 64.3999 16.8551C63.8049 16.9574 63.2537 17.238 62.8175 17.6607C62.3812 18.0834 62.0799 18.6289 61.9523 19.2268C61.8247 19.8247 61.8768 20.4476 62.1017 21.0152C62.3266 21.5829 62.7141 22.0692 63.2142 22.4116C63.7144 22.754 64.3042 22.9367 64.9077 22.9362C65.2995 22.964 65.6927 22.9085 66.0621 22.7733C66.4315 22.6381 66.769 22.4262 67.0529 22.1511C67.3368 21.876 67.5608 21.5438 67.7107 21.1759C67.8605 20.8079 67.9329 20.4123 67.9231 20.0143Z" fill="#223250"/>
<path d="M82.042 26.5882L78.0523 21.0017V26.5882H74.3105V8.89356H76.0402C76.3026 8.89279 76.5627 8.94453 76.8054 9.04579C77.048 9.14706 77.2686 9.29587 77.4545 9.4837C77.6403 9.67153 77.7878 9.89468 77.8884 10.1404C77.989 10.3861 78.0408 10.6495 78.0408 10.9155V19.4882L81.1887 14.8132C81.3703 14.5409 81.6151 14.3179 81.9016 14.164C82.1882 14.0102 82.5076 13.9301 82.8319 13.9308H86.147L81.6039 20.2537L86.2681 26.5707L82.042 26.5882Z" fill="#223250"/>
<path d="M99.7033 13.9492V24.5438C99.7033 25.08 99.4932 25.5943 99.1191 25.9735C98.745 26.3527 98.2376 26.5657 97.7085 26.5657H95.9789V25.3969C95.5094 25.9194 94.9311 26.3294 94.2859 26.5973C93.6407 26.8651 92.9448 26.9841 92.2486 26.9455C88.9853 26.9455 86.2871 24.0237 86.2871 20.272C86.2871 16.5204 88.9796 13.5927 92.2486 13.5927C92.9424 13.5552 93.6358 13.6741 94.2789 13.9409C94.9219 14.2076 95.4986 14.6156 95.9673 15.1354C95.9673 14.8255 96.0888 14.5282 96.3051 14.309C96.5213 14.0898 96.8146 13.9667 97.1204 13.9667L99.7033 13.9492ZM95.9616 20.272C95.9616 19.4739 95.6487 18.7084 95.0919 18.144C94.5351 17.5796 93.7798 17.2625 92.9923 17.2625C92.2049 17.2625 91.4496 17.5796 90.8928 18.144C90.336 18.7084 90.0231 19.4739 90.0231 20.272C90.0231 21.0702 90.336 21.8357 90.8928 22.4001C91.4496 22.9645 92.2049 23.2815 92.9923 23.2815C93.7798 23.2815 94.5351 22.9645 95.0919 22.4001C95.6487 21.8357 95.9616 21.0702 95.9616 20.272Z" fill="#223250"/>
<path d="M112 22.7904C112 25.7123 109.504 26.9394 106.811 26.9394C104.32 26.9394 102.424 25.9811 101.449 23.93L103.179 22.9365C103.524 22.738 103.92 22.6487 104.315 22.6799C104.711 22.7112 105.088 22.8616 105.399 23.1118C105.811 23.4171 106.313 23.5716 106.823 23.5501C107.722 23.5501 108.172 23.2755 108.172 22.7671C108.172 21.3763 102.032 22.1126 102.032 17.7357C102.032 14.9774 104.338 13.5866 106.926 13.5866C107.901 13.556 108.866 13.7908 109.721 14.2667C110.576 14.7426 111.289 15.442 111.787 16.2923L109.942 17.3032C109.628 17.4792 109.273 17.5641 108.915 17.5486C108.557 17.5331 108.21 17.4179 107.912 17.2156C107.62 17.0213 107.276 16.9215 106.926 16.9292C106.275 16.9292 105.877 17.1805 105.877 17.6363C105.866 19.0797 112 18.1155 112 22.7904Z" fill="#223250"/>
<path d="M34.4487 15.7774V18.0038C32.9036 17.7525 30.7069 18.3837 30.7069 20.8906V24.5429C30.71 24.8104 30.6606 25.0758 30.5617 25.3238C30.4629 25.5718 30.3164 25.7975 30.1309 25.9877C29.9453 26.178 29.7244 26.329 29.4808 26.4321C29.2373 26.5351 28.976 26.5882 28.7121 26.5882H26.9824V18.6583C26.9847 17.3888 27.4726 16.1698 28.3436 15.2575C29.2146 14.3453 30.4007 13.811 31.6525 13.7671H32.4135C32.6781 13.7609 32.9412 13.8083 33.1875 13.9064C33.4338 14.0046 33.6583 14.1516 33.8479 14.3388C34.0374 14.526 34.1882 14.7497 34.2913 14.9967C34.3945 15.2437 34.448 15.5091 34.4487 15.7774Z" fill="#223250"/>
<path d="M39.2585 13.9482H40.9882V24.5428C40.9882 25.0791 40.778 25.5934 40.4039 25.9725C40.0298 26.3517 39.5224 26.5648 38.9933 26.5648H37.2637V15.9702C37.2637 15.4339 37.4738 14.9196 37.8479 14.5404C38.2221 14.1613 38.7295 13.9482 39.2585 13.9482Z" fill="#223250"/>
<path d="M39.1357 12.9733C40.3616 12.9733 41.3554 11.966 41.3554 10.7235C41.3554 9.48091 40.3616 8.47363 39.1357 8.47363C37.9098 8.47363 36.916 9.48091 36.916 10.7235C36.916 11.966 37.9098 12.9733 39.1357 12.9733Z" fill="#223250"/>
</g>
<defs>
<clipPath id="clip0_3183_103668">
<rect width="112" height="32" fill="white"/>
</clipPath>
</defs>
</svg>
