<svg width="24" height="24" viewBox="0 0 24 24" fill="none" xmlns="http://www.w3.org/2000/svg">
<path d="M21.7583 6.40834L17.5917 2.24168C17.5138 2.16445 17.4214 2.10334 17.3199 2.06187C17.2184 2.0204 17.1097 1.99938 17 2.00001H3.66667C3.22464 2.00001 2.80072 2.17561 2.48815 2.48817C2.17559 2.80073 2 3.22465 2 3.66668V20.3333C2 20.7754 2.17559 21.1993 2.48815 21.5118C2.80072 21.8244 3.22464 22 3.66667 22H20.3333C20.7753 22 21.1993 21.8244 21.5118 21.5118C21.8244 21.1993 22 20.7754 22 20.3333V7.00001C22.0006 6.89034 21.9796 6.78162 21.9381 6.68009C21.8967 6.57856 21.8356 6.48621 21.7583 6.40834ZM8.66666 3.66668H15.3333V7.00001H8.66666V3.66668ZM15.3333 20.3333H8.66666V13.6667H15.3333V20.3333ZM17 20.3333V13.6667C17 13.2246 16.8244 12.8007 16.5118 12.4882C16.1993 12.1756 15.7754 12 15.3333 12H8.66666C8.22463 12 7.80071 12.1756 7.48815 12.4882C7.17559 12.8007 7 13.2246 7 13.6667V20.3333H3.66667V3.66668H7V7.00001C7 7.44204 7.17559 7.86596 7.48815 8.17852C7.80071 8.49108 8.22463 8.66668 8.66666 8.66668H15.3333C15.7754 8.66668 16.1993 8.49108 16.5118 8.17852C16.8244 7.86596 17 7.44204 17 7.00001V4.00835L20.3333 7.34168V20.3333H17Z" fill="#005FC5"/>
</svg>
