<svg width="56" height="57" viewBox="0 0 56 57" fill="none" xmlns="http://www.w3.org/2000/svg">
<rect y="0.5" width="56" height="56" rx="8" fill="white"/>
<rect width="40" height="40" transform="translate(10 8.5)" fill="white"/>
<path d="M26.9148 43.2456C29.8814 42.0789 29.2314 38.8622 27.7314 36.8289C26.2481 34.7456 24.1981 33.3122 22.1314 31.9289C20.6568 30.9995 19.3402 29.8405 18.2314 28.4956C17.7648 27.9456 16.8148 26.9289 17.7814 26.7289C18.7648 26.5289 20.4648 27.4956 21.3314 27.8622C22.8481 28.4956 24.3481 29.2289 25.7481 30.0956L27.4314 27.2622C24.8314 25.5456 21.4981 24.0289 18.3981 23.5789C16.6314 23.3122 14.7648 23.6789 14.1648 25.5956C13.6314 27.2456 14.4814 28.9122 15.4481 30.2122C17.7314 33.2622 21.2814 34.7289 23.9314 37.3622C24.4981 37.9122 25.1814 38.5622 25.5148 39.3289C25.8648 40.0622 25.7814 40.1122 24.9981 40.1122C22.9314 40.1122 20.3481 38.4956 18.6648 37.4289L16.9814 40.2622C19.5314 41.8289 23.7981 44.2789 26.9148 43.2456ZM45.3981 17.2456C45.7648 16.8789 45.7648 16.2789 45.3981 15.9289L43.2314 13.7622C43.0569 13.594 42.8239 13.5 42.5814 13.5C42.339 13.5 42.106 13.594 41.9314 13.7622L40.2314 15.4622L43.6981 18.9289L45.3981 17.2456ZM28.9981 26.6956V30.1622H32.4648L42.7148 19.9122L39.2481 16.4456L28.9981 26.6956Z" fill="#ABB4C1"/>
</svg>
