<svg width="40" height="40" viewBox="0 0 40 40" fill="none" xmlns="http://www.w3.org/2000/svg">
    <path d="M16.25 34.75C19.2166 33.5833 18.5666 30.3666 17.0666 28.3333C15.5833 26.25 13.5333 24.8166 11.4666 23.4333C9.99205 22.5039 8.67545 21.3448 7.56663 20C7.09997 19.45 6.14997 18.4333 7.11663 18.2333C8.09997 18.0333 9.79997 19 10.6666 19.3666C12.1833 20 13.6833 20.7333 15.0833 21.6L16.7666 18.7666C14.1666 17.05 10.8333 15.5333 7.7333 15.0833C5.96663 14.8166 4.09997 15.1833 3.49997 17.1C2.96663 18.75 3.81663 20.4166 4.7833 21.7166C7.06663 24.7666 10.6166 26.2333 13.2666 28.8666C13.8333 29.4166 14.5166 30.0666 14.85 30.8333C15.2 31.5666 15.1166 31.6166 14.3333 31.6166C12.2666 31.6166 9.6833 30 7.99997 28.9333L6.31663 31.7666C8.86663 33.3333 13.1333 35.7833 16.25 34.75ZM34.7333 8.74997C35.1 8.38331 35.1 7.78331 34.7333 7.43331L32.5666 5.26664C32.3921 5.0984 32.1591 5.00439 31.9166 5.00439C31.6742 5.00439 31.4412 5.0984 31.2666 5.26664L29.5666 6.96664L33.0333 10.4333L34.7333 8.74997ZM18.3333 18.2V21.6666H21.8L32.05 11.4166L28.5833 7.94997L18.3333 18.2Z" fill="#005FC5"/>
</svg>
