<svg width="25" height="24" viewBox="0 0 25 24" fill="none" xmlns="http://www.w3.org/2000/svg">
  <path d="M11.5 4C11.5 4.55228 11.9477 5 12.5 5C13.0523 5 13.5 4.55228 13.5 4C13.5 3.44772 13.0523 3 12.5 3C11.9477 3 11.5 3.44772 11.5 4Z" stroke="#D7E2EE" stroke-width="2"/>
  <path d="M11.5 12C11.5 12.5523 11.9477 13 12.5 13C13.0523 13 13.5 12.5523 13.5 12C13.5 11.4477 13.0523 11 12.5 11C11.9477 11 11.5 11.4477 11.5 12Z" stroke="#D7E2EE" stroke-width="2"/>
  <path d="M11.5 20C11.5 20.5523 11.9477 21 12.5 21C13.0523 21 13.5 20.5523 13.5 20C13.5 19.4477 13.0523 19 12.5 19C11.9477 19 11.5 19.4477 11.5 20Z" stroke="#D7E2EE" stroke-width="2"/>
</svg>
