<svg width="16" height="16" viewBox="0 0 16 16" fill="none" xmlns="http://www.w3.org/2000/svg">
<path d="M14.2976 4.07508C14.2938 4.43791 14.1529 4.78493 13.9049 5.04253L6.00666 13.1961C5.96471 13.2397 5.91479 13.2743 5.85979 13.2979C5.80479 13.3215 5.7458 13.3337 5.68622 13.3337C5.62664 13.3337 5.56765 13.3215 5.51265 13.2979C5.45765 13.2743 5.40773 13.2397 5.36577 13.1961L2.07557 9.79605C1.82476 9.53481 1.68408 9.18215 1.68408 8.81465C1.68408 8.44715 1.82476 8.09449 2.07557 7.83325C2.33281 7.57856 2.67568 7.43633 3.0324 7.43633C3.38911 7.43633 3.73198 7.57856 3.98922 7.83325L5.68622 9.58675L12.0048 3.07507C12.1945 2.8799 12.436 2.7471 12.699 2.69351C12.9619 2.63992 13.2343 2.66794 13.4817 2.77403C13.7292 2.88012 13.9405 3.0595 14.089 3.28945C14.2374 3.5194 14.3163 3.78959 14.3157 4.06578L14.2976 4.07508Z" fill="#17AA83"/>
</svg>
