<svg width="40" height="40" viewBox="0 0 40 40" fill="none" xmlns="http://www.w3.org/2000/svg">
<path d="M3.33398 9.99967H36.6673M16.6673 18.333V26.6663M23.334 18.333V26.6663M6.66732 9.99967H33.334L30.7006 33.6997C30.6104 34.5153 30.2224 35.269 29.6111 35.8163C28.9997 36.3637 28.2079 36.6664 27.3873 36.6663H12.614C11.7934 36.6664 11.0016 36.3637 10.3902 35.8163C9.77887 35.269 9.39092 34.5153 9.30065 33.6997L6.66732 9.99967ZM12.2423 5.24467C12.5119 4.67295 12.9385 4.18967 13.4723 3.85119C14.0062 3.51272 14.6252 3.333 15.2573 3.33301H24.744C25.3764 3.33268 25.9958 3.51225 26.5299 3.85075C27.0641 4.18924 27.4909 4.6727 27.7606 5.24467L30.0006 9.99967H10.0006L12.2423 5.24467V5.24467Z" stroke="white" stroke-width="4" stroke-linecap="round" stroke-linejoin="round"/>
</svg>
