<svg width="30" height="30" viewBox="0 0 30 30" fill="none" xmlns="http://www.w3.org/2000/svg">
<path fill-rule="evenodd" clip-rule="evenodd" d="M13 19.5925H17C17.55 19.5925 18 19.1425 18 18.5925V13.5925H19.59C20.48 13.5925 20.93 12.5125 20.3 11.8825L15.71 7.29249C15.5232 7.10523 15.2695 7 15.005 7C14.7405 7 14.4868 7.10523 14.3 7.29249L9.71 11.8825C9.08 12.5125 9.52 13.5925 10.41 13.5925H12V18.5925C12 19.1425 12.45 19.5925 13 19.5925ZM9 21.5925H21C21.55 21.5925 22 22.0425 22 22.5925C22 23.1425 21.55 23.5925 21 23.5925H9C8.45 23.5925 8 23.1425 8 22.5925C8 22.0425 8.45 21.5925 9 21.5925Z" fill="white"/>
</svg>
