<svg width="24" height="24" viewBox="0 0 24 24" fill="none" xmlns="http://www.w3.org/2000/svg">
<path d="M23.7633 20.0698C20.2428 13.6385 16.7208 7.20729 13.1996 0.776041C13.0821 0.55347 12.9062 0.367166 12.6907 0.23721C12.4752 0.107254 12.2283 0.0385742 11.9767 0.0385742C11.725 0.0385742 11.4782 0.107254 11.2627 0.23721C11.0472 0.367166 10.8712 0.55347 10.7538 0.776041C7.23293 7.20729 3.70906 13.6385 0.190059 20.0698C-0.354816 21.0632 0.339684 22.3509 1.41181 22.3509H22.5431C23.1371 22.3509 23.5361 22.031 23.7442 21.5972C24.0059 21.1839 24.0761 20.6353 23.7648 20.069" fill="#FF0000"/>
<path d="M10.8436 12.9289L10.5102 7.95564C10.448 6.98702 10.418 6.29102 10.418 5.86877C10.418 5.29352 10.568 4.84614 10.8687 4.52327C11.1706 4.20227 11.5673 4.04102 12.0593 4.04102C12.653 4.04102 13.0516 4.24764 13.2511 4.65827C13.4525 5.07152 13.5545 5.66477 13.5545 6.43989C13.5545 6.89552 13.5297 7.35977 13.4802 7.83039L13.034 12.9488C12.9856 13.5585 12.8825 14.0258 12.7238 14.3509C12.5641 14.6775 12.3008 14.8388 11.933 14.8388C11.561 14.8388 11.2992 14.6816 11.156 14.3674C11.0086 14.052 10.9055 13.5724 10.8436 12.9289ZM11.9956 19.7603C11.5737 19.7603 11.2058 19.6245 10.8905 19.3504C10.5751 19.0774 10.418 18.6949 10.418 18.2036C10.418 17.775 10.568 17.4086 10.8687 17.1083C11.1706 16.806 11.5385 16.656 11.9753 16.656C12.4122 16.656 12.7827 16.806 13.0917 17.1083C13.3973 17.4086 13.5545 17.775 13.5545 18.2036C13.5545 18.6874 13.3973 19.0691 13.0872 19.3451C12.7891 19.6168 12.3989 19.7652 11.9956 19.7603Z" fill="white"/>
<path d="M11.9956 19.7603C11.5737 19.7603 11.2058 19.6245 10.8905 19.3504C10.5751 19.0774 10.418 18.6949 10.418 18.2036C10.418 17.775 10.568 17.4086 10.8687 17.1083C11.1706 16.806 11.5385 16.656 11.9753 16.656C12.4122 16.656 12.7827 16.806 13.0917 17.1083C13.3973 17.4086 13.5545 17.775 13.5545 18.2036C13.5545 18.6874 13.3973 19.0691 13.0872 19.3451C12.7891 19.6168 12.3989 19.7652 11.9956 19.7603M10.8436 12.9289L10.5102 7.95564C10.448 6.98702 10.418 6.29102 10.418 5.86877C10.418 5.29352 10.568 4.84614 10.8687 4.52327C11.1706 4.20227 11.5673 4.04102 12.0593 4.04102C12.653 4.04102 13.0516 4.24764 13.2511 4.65827C13.4525 5.07152 13.5545 5.66477 13.5545 6.43989C13.5545 6.89552 13.5297 7.35977 13.4802 7.83039L13.034 12.9488C12.9856 13.5585 12.8825 14.0258 12.7238 14.3509C12.5641 14.6775 12.3008 14.8388 11.933 14.8388C11.561 14.8388 11.2992 14.6816 11.156 14.3674C11.0086 14.052 10.9055 13.5724 10.8436 12.9289V12.9289Z" stroke="white" stroke-width="0.5"/>
</svg>
