<svg width="16" height="16" viewBox="0 0 16 16" fill="none" xmlns="http://www.w3.org/2000/svg">
<path d="M9.40864 7.99915L13.7045 3.71268C13.8926 3.52453 13.9983 3.26935 13.9983 3.00326C13.9983 2.73718 13.8926 2.482 13.7045 2.29385C13.5164 2.1057 13.2612 2 12.9952 2C12.7291 2 12.474 2.1057 12.2859 2.29385L8 6.59031L3.71414 2.29385C3.52602 2.1057 3.27087 2 3.00483 2C2.73878 2 2.48363 2.1057 2.29551 2.29385C2.10739 2.482 2.0017 2.73718 2.0017 3.00326C2.0017 3.26935 2.10739 3.52453 2.29551 3.71268L6.59136 7.99915L2.29551 12.2856C2.20187 12.3785 2.12755 12.489 2.07683 12.6108C2.02611 12.7325 2 12.8631 2 12.995C2 13.1269 2.02611 13.2575 2.07683 13.3793C2.12755 13.501 2.20187 13.6116 2.29551 13.7044C2.38839 13.7981 2.49888 13.8724 2.62062 13.9232C2.74236 13.9739 2.87294 14 3.00483 14C3.13671 14 3.26729 13.9739 3.38903 13.9232C3.51077 13.8724 3.62127 13.7981 3.71414 13.7044L8 9.40799L12.2859 13.7044C12.3787 13.7981 12.4892 13.8724 12.611 13.9232C12.7327 13.9739 12.8633 14 12.9952 14C13.1271 14 13.2576 13.9739 13.3794 13.9232C13.5011 13.8724 13.6116 13.7981 13.7045 13.7044C13.7981 13.6116 13.8724 13.501 13.9232 13.3793C13.9739 13.2575 14 13.1269 14 12.995C14 12.8631 13.9739 12.7325 13.9232 12.6108C13.8724 12.489 13.7981 12.3785 13.7045 12.2856L9.40864 7.99915Z" fill="#E54848"/>
</svg>
