<svg width="146" height="146" viewBox="0 0 146 146" fill="none" xmlns="http://www.w3.org/2000/svg">
<rect x="0.5" y="0.5" width="145" height="145" rx="16.5" stroke="#39C24F"/>
<rect opacity="0.4" x="1.5" y="1.5" width="143" height="143" rx="15.5" fill="#39C24F" fill-opacity="0.05" stroke="#39C24F"/>
<path d="M84.4545 109.001C84.4545 109.869 84.1097 110.701 83.496 111.315C82.8822 111.929 82.0498 112.273 81.1818 112.273H69.7273C68.8593 112.273 68.0269 111.929 67.4131 111.315C66.7994 110.701 66.4545 109.869 66.4545 109.001V89.3642C66.4545 88.4962 66.7994 87.6638 67.4131 87.0501C68.0269 86.4363 68.8593 86.0915 69.7273 86.0915C70.5953 86.0915 71.4277 86.4363 72.0414 87.0501C72.6552 87.6638 73 88.4962 73 89.3642V105.728H81.1818C82.0498 105.728 82.8822 106.073 83.496 106.686C84.1097 107.3 84.4545 108.133 84.4545 109.001ZM58.6 86.746C58.2562 86.4882 57.8649 86.3006 57.4486 86.1939C57.0323 86.0872 56.599 86.0636 56.1735 86.1244C55.7481 86.1852 55.3387 86.3292 54.9689 86.5481C54.5991 86.7671 54.276 87.0568 54.0182 87.4006L49.2727 93.7415L44.5273 87.4006C44.0065 86.7062 43.2312 86.2471 42.3719 86.1244C41.5127 86.0016 40.6398 86.2253 39.9455 86.746C39.2511 87.2668 38.792 88.0421 38.6693 88.9014C38.5465 89.7606 38.7701 90.6335 39.2909 91.3279L45.1818 99.1824L39.2909 107.037C38.7701 107.731 38.5465 108.604 38.6693 109.463C38.792 110.323 39.2511 111.098 39.9455 111.619C40.5076 112.052 41.1995 112.283 41.9091 112.273C42.4172 112.273 42.9183 112.155 43.3727 111.928C43.8271 111.701 44.2224 111.371 44.5273 110.964L49.2727 104.623L54.0182 110.964C54.323 111.371 54.7183 111.701 55.1728 111.928C55.6272 112.155 56.1283 112.273 56.6364 112.273C57.346 112.283 58.0379 112.052 58.6 111.619C59.2944 111.098 59.7534 110.323 59.8762 109.463C59.9989 108.604 59.7753 107.731 59.2545 107.037L53.3636 99.1824L59.2545 91.3279C59.7753 90.6335 59.9989 89.7606 59.8762 88.9014C59.7534 88.0421 59.2944 87.2668 58.6 86.746ZM109 56.7188V73.0006C109 73.8686 108.655 74.701 108.041 75.3148C107.428 75.9285 106.595 76.2733 105.727 76.2733C104.859 76.2733 104.027 75.9285 103.413 75.3148C102.799 74.701 102.455 73.8686 102.455 73.0006V59.9097H82.8182C81.9502 59.9097 81.1178 59.5649 80.504 58.9511C79.8903 58.3374 79.5455 57.5049 79.5455 56.637V37.0006H43.5455V73.0006C43.5455 73.8686 43.2006 74.701 42.5869 75.3148C41.9731 75.9285 41.1407 76.2733 40.2727 76.2733C39.4047 76.2733 38.5723 75.9285 37.9586 75.3148C37.3448 74.701 37 73.8686 37 73.0006V37.0006C37 35.2646 37.6896 33.5998 38.9171 32.3722C40.1446 31.1447 41.8095 30.4551 43.5455 30.4551H82.8182C83.6889 30.4502 84.5265 30.7882 85.15 31.396L108.018 54.3051C108.332 54.6063 108.581 54.9686 108.75 55.3696C108.919 55.7706 109.004 56.2019 109 56.637V56.7188ZM86.0909 53.3642H97.8318L86.0909 41.6233V53.3642ZM99.8773 95.8279C98.6091 95.5006 96.3591 94.887 95.9091 94.3551V94.2733C95.9091 92.9233 96.8909 92.2279 98.7727 92.2279C100.235 92.2576 101.656 92.7125 102.864 93.537H102.823C103.416 94.0085 104.151 94.2677 104.909 94.2733C105.777 94.2733 106.61 93.9285 107.223 93.3148C107.837 92.701 108.182 91.8686 108.182 91.0006C108.19 90.5213 108.087 90.0467 107.881 89.6138C107.675 89.1809 107.372 88.8015 106.995 88.5051C104.635 86.6941 101.748 85.703 98.7727 85.6824C93.25 85.6824 89.3636 89.2006 89.3636 94.2733C89.3636 99.346 94.6818 101.228 98.2 102.169C99.5909 102.537 101.064 102.905 101.964 103.437C102.864 103.969 102.455 103.846 102.455 104.091C102.455 104.337 102.455 106.137 98.7727 106.137C97.3109 106.107 95.8894 105.652 94.6818 104.828H94.7227C94.129 104.356 93.3945 104.097 92.6364 104.091C91.7684 104.091 90.9359 104.436 90.3222 105.05C89.7084 105.664 89.3636 106.496 89.3636 107.364C89.3556 107.843 89.4586 108.318 89.6644 108.751C89.8702 109.184 90.1733 109.563 90.55 109.86C92.9105 111.671 95.7976 112.662 98.7727 112.682C105.155 112.682 109 109.451 109 104.091C109 98.7324 103.273 96.7279 99.8773 95.8279Z" fill="#39C24F"/>
</svg>
