<svg width="16" height="16" viewBox="0 0 16 16" fill="none" xmlns="http://www.w3.org/2000/svg">
<path d="M6.00016 7.8335C5.54016 7.8335 5.16683 8.20683 5.16683 8.66683C5.16683 9.12683 5.54016 9.50016 6.00016 9.50016C6.46016 9.50016 6.8335 9.12683 6.8335 8.66683C6.8335 8.20683 6.46016 7.8335 6.00016 7.8335ZM10.0002 7.8335C9.54016 7.8335 9.16683 8.20683 9.16683 8.66683C9.16683 9.12683 9.54016 9.50016 10.0002 9.50016C10.4602 9.50016 10.8335 9.12683 10.8335 8.66683C10.8335 8.20683 10.4602 7.8335 10.0002 7.8335ZM8.00016 1.3335C4.32016 1.3335 1.3335 4.32016 1.3335 8.00016C1.3335 11.6802 4.32016 14.6668 8.00016 14.6668C11.6802 14.6668 14.6668 11.6802 14.6668 8.00016C14.6668 4.32016 11.6802 1.3335 8.00016 1.3335ZM8.00016 13.3335C5.06016 13.3335 2.66683 10.9402 2.66683 8.00016C2.66683 7.80683 2.68016 7.6135 2.70016 7.42683C4.2735 6.72683 5.52016 5.44016 6.1735 3.84683C7.38016 5.5535 9.36683 6.66683 11.6135 6.66683C12.1335 6.66683 12.6335 6.60683 13.1135 6.4935C13.2535 6.96683 13.3335 7.4735 13.3335 8.00016C13.3335 10.9402 10.9402 13.3335 8.00016 13.3335Z" fill="white"/>
</svg>
