<svg width="16" height="16" viewBox="0 0 16 16" fill="none" xmlns="http://www.w3.org/2000/svg">
<path d="M13.3335 3.99984H8.00016L7.06016 3.05984C6.80683 2.8065 6.46683 2.6665 6.1135 2.6665H2.66683C1.9335 2.6665 1.34016 3.2665 1.34016 3.99984L1.3335 11.9998C1.3335 12.7332 1.9335 13.3332 2.66683 13.3332H13.3335C14.0668 13.3332 14.6668 12.7332 14.6668 11.9998V5.33317C14.6668 4.59984 14.0668 3.99984 13.3335 3.99984ZM8.66683 10.6665H4.66683C4.30016 10.6665 4.00016 10.3665 4.00016 9.99984C4.00016 9.63317 4.30016 9.33317 4.66683 9.33317H8.66683C9.0335 9.33317 9.3335 9.63317 9.3335 9.99984C9.3335 10.3665 9.0335 10.6665 8.66683 10.6665ZM11.3335 7.99984H4.66683C4.30016 7.99984 4.00016 7.69984 4.00016 7.33317C4.00016 6.9665 4.30016 6.6665 4.66683 6.6665H11.3335C11.7002 6.6665 12.0002 6.9665 12.0002 7.33317C12.0002 7.69984 11.7002 7.99984 11.3335 7.99984Z" fill="#C8D3E4"/>
</svg>
