<svg width="16" height="16" viewBox="0 0 16 16" fill="none" xmlns="http://www.w3.org/2000/svg">
<path fill-rule="evenodd" clip-rule="evenodd" d="M13.3335 2H2.66683C1.9335 2 1.3335 2.6 1.3335 3.33333V12.6667C1.3335 13.4 1.9335 14 2.66683 14H13.3335C14.0668 14 14.6668 13.4 14.6668 12.6667V3.33333C14.6668 2.6 14.0668 2 13.3335 2ZM6.00016 11.3333H4.00016C3.6335 11.3333 3.3335 11.0333 3.3335 10.6667C3.3335 10.3 3.6335 10 4.00016 10H6.00016C6.36683 10 6.66683 10.3 6.66683 10.6667C6.66683 11.0333 6.36683 11.3333 6.00016 11.3333ZM6.00016 8.66667H4.00016C3.6335 8.66667 3.3335 8.36667 3.3335 8C3.3335 7.63333 3.6335 7.33333 4.00016 7.33333H6.00016C6.36683 7.33333 6.66683 7.63333 6.66683 8C6.66683 8.36667 6.36683 8.66667 6.00016 8.66667ZM6.00016 6H4.00016C3.6335 6 3.3335 5.7 3.3335 5.33333C3.3335 4.96667 3.6335 4.66667 4.00016 4.66667H6.00016C6.36683 4.66667 6.66683 4.96667 6.66683 5.33333C6.66683 5.7 6.36683 6 6.00016 6ZM12.4668 7.41333L10.3535 9.52667C10.0935 9.78667 9.66683 9.78667 9.40683 9.52667L8.46683 8.58C8.20683 8.32 8.20683 7.9 8.46683 7.64C8.72683 7.38 9.14683 7.38 9.40683 7.64L9.88016 8.11333L11.5268 6.46667C11.7868 6.20667 12.2068 6.20667 12.4668 6.46667L12.4735 6.47333C12.7268 6.73333 12.7268 7.16 12.4668 7.41333Z" fill="#C8D3E4"/>
</svg>
