<svg width="30" height="24" viewBox="0 0 30 24" fill="none" xmlns="http://www.w3.org/2000/svg">
  <rect x="0.5" y="23.5" width="23" height="29" rx="3.5" transform="rotate(-90 0.5 23.5)" fill="white"/>
  <path d="M11 12C11 10.9 10.1 10 9 10C7.9 10 7 10.9 7 12C7 13.1 7.9 14 9 14C10.1 14 11 13.1 11 12ZM13 12C13 13.1 13.9 14 15 14C16.1 14 17 13.1 17 12C17 10.9 16.1 10 15 10C13.9 10 13 10.9 13 12ZM19 12C19 13.1 19.9 14 21 14C22.1 14 23 13.1 23 12C23 10.9 22.1 10 21 10C19.9 10 19 10.9 19 12Z" fill="black"/>
  <rect x="0.5" y="23.5" width="23" height="29" rx="3.5" transform="rotate(-90 0.5 23.5)" stroke="#C6D7E0"/>
</svg>
