<svg width="24" height="30" viewBox="0 0 24 30" fill="none" xmlns="http://www.w3.org/2000/svg">
<rect x="0.5" y="0.5" width="23" height="29" rx="3.5" fill="white"/>
<path d="M12 11C13.1 11 14 10.1 14 9C14 7.9 13.1 7 12 7C10.9 7 10 7.9 10 9C10 10.1 10.9 11 12 11ZM12 13C10.9 13 10 13.9 10 15C10 16.1 10.9 17 12 17C13.1 17 14 16.1 14 15C14 13.9 13.1 13 12 13ZM12 19C10.9 19 10 19.9 10 21C10 22.1 10.9 23 12 23C13.1 23 14 22.1 14 21C14 19.9 13.1 19 12 19Z" fill="black"/>
<rect x="0.5" y="0.5" width="23" height="29" rx="3.5" stroke="#C6D7E0"/>
</svg>
