<svg width="156" height="133" viewBox="0 0 156 133" fill="none" xmlns="http://www.w3.org/2000/svg">
<path d="M15.2713 127.747H11.9759L16.9972 113.202H20.9602L25.9744 127.747H22.679L19.0355 116.525H18.9219L15.2713 127.747ZM15.0653 122.03H22.8494V124.43H15.0653V122.03Z" fill="#FF6270"/>
<path d="M148.588 113.202H151.628V123.344C151.628 124.281 151.417 125.096 150.996 125.787C150.579 126.478 149.999 127.011 149.256 127.385C148.512 127.759 147.648 127.946 146.663 127.946C145.787 127.946 144.992 127.792 144.277 127.484C143.567 127.172 143.003 126.698 142.587 126.064C142.17 125.425 141.964 124.622 141.969 123.656H145.03C145.039 124.04 145.117 124.369 145.264 124.643C145.416 124.913 145.622 125.122 145.882 125.268C146.147 125.41 146.46 125.481 146.82 125.481C147.198 125.481 147.518 125.401 147.778 125.24C148.044 125.074 148.245 124.833 148.382 124.516C148.519 124.198 148.588 123.808 148.588 123.344V113.202Z" fill="#459767"/>
<path d="M19.5 108.747C19.5 101.472 20.7247 94.4817 22.981 87.9658C25.1945 81.5735 28.4008 75.6382 32.4175 70.3406C36.4897 64.9699 41.3948 60.2547 46.9429 56.3833C52.419 52.5622 58.5215 49.5631 65.0675 47.5672C71.0804 45.7339 77.4677 44.7471 84.0875 44.7471" stroke="#FFDC62" stroke-width="16"/>
<path d="M147.5 108.747C147.5 101.472 146.275 94.4817 144.019 87.9658C141.806 81.5735 138.599 75.6382 134.582 70.3406C130.51 64.9699 125.605 60.2547 120.057 56.3833C114.581 52.5622 108.479 49.5631 101.933 47.5672C95.9196 45.7339 89.5323 44.7471 82.9125 44.7471" stroke="#A5DB92" stroke-width="16"/>
<path d="M19.5 108.746C19.5 101.472 20.7247 94.4809 22.981 87.965C25.1945 81.5727 28.4008 75.6373 32.4175 70.3398C36.4897 64.9691 41.3948 60.2539 46.9429 56.3825C52.419 52.5613 58.5215 49.5623 65.0675 47.5664" stroke="#FFCA62" stroke-width="16"/>
<path d="M147.5 108.746C147.5 101.472 146.275 94.4809 144.019 87.965C141.806 81.5727 138.599 75.6373 134.583 70.3398C130.51 64.9691 125.605 60.2539 120.057 56.3825C114.581 52.5613 108.479 49.5623 101.933 47.5664" stroke="#71CE98" stroke-width="16"/>
<path d="M19.5 108.746C19.5 101.472 20.7247 94.4812 22.981 87.9653C25.1945 81.573 28.4008 75.6377 32.4175 70.3401C36.4897 64.9694 41.3948 60.2542 46.9429 56.3828" stroke="#FFC062" stroke-width="16"/>
<path d="M147.5 108.746C147.5 101.472 146.275 94.4812 144.019 87.9653C141.806 81.573 138.599 75.6377 134.582 70.3401C130.51 64.9694 125.605 60.2542 120.057 56.3828" stroke="#57B980" stroke-width="16"/>
<path d="M19.5 108.746C19.5 101.472 20.7247 94.4809 22.981 87.965C25.1945 81.5727 28.4008 75.6374 32.4175 70.3398" stroke="#FFA462" stroke-width="16"/>
<path d="M147.5 108.746C147.5 101.472 146.275 94.4809 144.019 87.965C141.806 81.5727 138.599 75.6374 134.583 70.3398" stroke="#38AB68" stroke-width="16"/>
<path d="M19.5 108.747C19.5 101.472 20.7247 94.4817 22.981 87.9658" stroke="#FF6270" stroke-width="16"/>
<g filter="url(#filter0_d_5710_90966)">
<path d="M46.3286 55.2146C52.2136 50.939 58.5891 47.8207 65.1867 45.8162" stroke="#F7C25B" stroke-width="19"/>
</g>
<path d="M147.5 108.747C147.5 101.472 146.275 94.4817 144.019 87.9658" stroke="#459767" stroke-width="16"/>
<defs>
<filter id="filter0_d_5710_90966" x="0.744141" y="0.726562" width="107.205" height="106.174" filterUnits="userSpaceOnUse" color-interpolation-filters="sRGB">
<feFlood flood-opacity="0" result="BackgroundImageFix"/>
<feColorMatrix in="SourceAlpha" type="matrix" values="0 0 0 0 0 0 0 0 0 0 0 0 0 0 0 0 0 0 127 0" result="hardAlpha"/>
<feOffset dy="4"/>
<feGaussianBlur stdDeviation="20"/>
<feComposite in2="hardAlpha" operator="out"/>
<feColorMatrix type="matrix" values="0 0 0 0 0 0 0 0 0 0 0 0 0 0 0 0 0 0 0.2 0"/>
<feBlend mode="normal" in2="BackgroundImageFix" result="effect1_dropShadow_5710_90966"/>
<feBlend mode="normal" in="SourceGraphic" in2="effect1_dropShadow_5710_90966" result="shape"/>
</filter>
</defs>
</svg>
